<?xml version="1.0" standalone="no"?>
<!DOCTYPE svg PUBLIC "-//W3C//DTD SVG 1.1//EN" "http://www.w3.org/Graphics/SVG/1.1/DTD/svg11.dtd">
<svg xmlns="http://www.w3.org/2000/svg" id="Capa_1" data-name="Capa 1" viewBox="0 0 779.43 332.47" width="779.4299926757812" height="332.4700012207031">
  <defs>
    <style>
      .cls-1 {
        stroke-width: 0px;
      }
    </style>
  </defs>
  <path class="cls-1" d="m218.11,38.52h-6.8c-18.73,0-37.47.02-56.2,0-8.62-.01-13.29-4.07-13.18-11.32.11-6.9,4.74-10.76,13.08-10.76,24-.02,48.01-.03,72.01,0,8.83.01,12.91,3.97,13.01,12.8.12,9.94.03,19.88.03,30.56,5.55,0,10.76,0,15.97,0,9.17.01,18.35-.18,27.51.12,6.46.21,10.68,4.8,10.78,10.84.1,6.03-4.1,11.1-10.4,11.19-18.54.26-37.08.27-55.61-.02-6.39-.1-10.12-4.66-10.17-11.23-.09-10.49-.02-20.98-.02-32.17Z"/>
  <path class="cls-1" d="m163.87,147.2c0,13.95.02,26.99,0,40.03-.02,10.79-3.63,14.41-14.33,14.42-12.88.01-25.75.04-38.63-.01-7.82-.03-12.84-4.63-12.66-11.37.18-6.56,5.02-10.68,12.69-10.72,10.1-.04,20.2,0,30.97,0,0-13.38,0-26.19,0-39.01,0-12.52,2.81-15.29,15.53-15.29,16,0,32-.03,47.99.01,7.9.02,12.97,4.48,12.86,11.14-.11,6.55-4.91,10.75-12.65,10.79-13.62.08-27.25.02-41.78.02Z"/>
  <path class="cls-1" d="m185.28,245.02c-10.7,0-20.8.02-30.9,0-7.78-.02-12.36-4-12.47-10.76-.11-6.82,4.42-11.24,12.06-11.3,13.66-.12,27.33-.11,40.99,0,7.94.06,12.49,4.29,12.55,12.28.18,24.59.16,49.19,0,73.78-.05,7.57-4.81,12.31-11.35,12.2-6.53-.1-10.83-4.93-10.85-12.55-.06-18.93-.02-37.86-.02-56.8,0-2.1,0-4.2,0-6.84Z"/>
  <path class="cls-1" d="m305.05,38.52c-14.36,0-27.82.02-41.29,0-8.08-.02-13.1-4.16-13.24-10.82-.15-7.02,4.82-11.26,13.31-11.27,16.79-.02,33.57-.03,50.36,0,8.74.02,12.88,4.08,12.93,12.92.1,16.79.08,33.57,0,50.36-.04,8.33-4.55,13.3-11.6,13.09-6.78-.2-10.47-4.9-10.48-13.38,0-13.42,0-26.85,0-40.9Z"/>
  <path class="cls-1" d="m163.87,92.61c14.05,0,27.46,0,40.88,0,8.6,0,13.61,4.1,13.55,11.01-.06,6.81-5.26,11.07-13.67,11.09-16.38.03-32.77.03-49.15,0-9.75-.02-13.55-3.76-13.57-13.32-.02-13.07-.03-26.14,0-39.2.02-8.38,3.85-13.01,10.72-13.11,7.1-.1,11.17,4.67,11.22,13.34.06,9.74.01,19.49.01,30.2Z"/>
  <path class="cls-1" d="m305.05,158.09c-11.05,0-21.19.04-31.33-.01-7.62-.04-12.25-4.31-12.23-11.1.02-6.61,4.81-10.93,12.4-10.97,13.65-.06,27.31-.08,40.96,0,7.6.05,12.12,4.31,12.22,11.9.19,13.85.17,27.7.01,41.55-.08,7.43-4.88,12.33-11.37,12.18-6.63-.15-10.66-4.88-10.68-12.63-.03-10.1,0-20.2,0-30.92Z"/>
  <path class="cls-1" d="m255.81,168.81c8.96,0,17.93-.05,26.89.02,6.96.06,11.38,4.09,11.62,10.4.24,6.18-4.08,11.44-10.66,11.55-18.31.29-36.63.3-54.94,0-6.96-.11-11-5.26-10.61-12.05.34-6.03,4.66-9.85,11.39-9.91,8.77-.07,17.54-.02,26.3-.02Z"/>
  <path class="cls-1" d="m141.87,288.28c0-7.01-.09-14.02.03-21.02.11-6.7,4.47-11.39,10.53-11.64,6.2-.25,11.29,4.58,11.38,11.46.19,14.21.18,28.42,0,42.63-.08,7.14-4.7,11.61-11.21,11.51-6.44-.09-10.64-4.68-10.72-11.92-.08-7.01-.02-14.02-.02-21.02Z"/>
  <path class="cls-1" d="m97.9,169.01c-6.82,0-13.63.13-20.44-.03-7.26-.17-11.7-4.48-11.72-11-.02-6.41,4.51-11.09,11.64-11.19,14.02-.21,28.04-.19,42.06,0,6.95.1,11.87,4.97,11.93,11.12.06,6.2-4.76,10.87-11.85,11.05-7.2.18-14.41.04-21.61.04v.02Z"/>
  <path class="cls-1" d="m294.16,125.45c-7.01,0-14.02.08-21.03-.02-7.11-.1-11.66-4.5-11.63-11.05.02-6.52,4.57-10.94,11.74-11,14.02-.11,28.04-.12,42.06,0,6.91.06,11.88,4.92,11.82,11.11-.06,6.34-4.87,10.83-11.93,10.94-7.01.1-14.02.02-21.03.02Z"/>
  <path class="cls-1" d="m228.85,125.18c0-7.01-.08-14.02.02-21.03.1-6.82,4.32-11.35,10.53-11.54,6.62-.21,11.39,4.16,11.49,11.24.2,14.21.18,28.42.02,42.63-.08,7.06-4.79,11.67-11.21,11.59-6.43-.08-10.75-4.75-10.83-11.87-.07-7.01-.02-14.02-.02-21.03Z"/>
  <path class="cls-1" d="m49.05,201.64c-5.07,0-10.15.1-15.22-.02-7.2-.17-11.54-4.47-11.48-11.19.05-6.46,4.3-10.76,11.19-10.85,10.73-.14,21.47-.16,32.2,0,6.72.11,10.98,4.68,10.93,11.14-.04,6.14-4.22,10.59-10.64,10.86-5.65.23-11.32.05-16.98.05Z"/>
  <path class="cls-1" d="m196.26,65.89c0,1.95.1,3.91-.02,5.85-.35,5.71-4.44,9.85-10.05,10.29-5.39.43-10.66-3.2-11.36-8.77-.63-4.97-.64-10.14-.05-15.11.71-6.03,5.71-9.52,11.61-9.04,5.91.47,9.67,4.6,9.88,10.93.07,1.95.01,3.9.01,5.85h-.02Z"/>
  <path class="cls-1" d="m190.83,190.54c2.34,0,4.71-.24,7.02.05,5.72.72,9.89,5.82,9.6,11.42-.29,5.47-4.5,9.97-10.09,10.35-3.89.26-7.81.18-11.71.05-6.72-.22-11.32-4.74-11.32-10.91,0-6.24,4.49-10.69,11.23-11.05,1.75-.09,3.51-.01,5.27-.01,0,.04,0,.07,0,.11Z"/>
  <path class="cls-1" d="m189.95,180.18c-1.78-.17-4.53-.17-7.16-.73-5.52-1.19-8.09-5.12-8.42-10.46-.33-5.25,3.33-10.07,8.66-10.76,4.76-.62,9.69-.67,14.47-.2,6.19.61,10.01,5.23,9.94,10.92-.07,5.69-4.03,9.99-10.16,10.85-2.1.29-4.25.24-7.32.39Z"/>
  <path class="cls-1" d="m38.62,168.83c-2.34,0-4.71.24-7.01-.05-5.28-.66-8.9-4.59-9.26-9.69-.41-5.84,2.14-10.55,7.62-11.5,5.28-.91,10.88-.95,16.21-.32,5.65.67,9.34,6.01,8.99,11.27-.38,5.7-4.67,9.9-10.71,10.37-1.94.15-3.9.02-5.85.02v-.11Z"/>
  <path class="cls-1" d="m531.17,240.42c6.11-8.84,13.07-16.75,17.62-25.87,16.79-33.61,17.52-68.52,4.09-103.18-9.62-24.81-27.88-42.06-53.15-51.17-14.71-5.3-30.03-6.44-45.58-5.26-36.17,2.74-63.1,19.8-79.97,52-11.51,21.97-14.03,45.75-11.48,70,3.63,34.47,19.64,61.42,50.87,77.82,22.35,11.74,46.38,12.55,70.75,8.31,4.25-.74,7.21-.47,10.16,3.11,3.96,4.8,8.42,9.26,13.11,13.35,2.12,1.85,5.27,3.35,8.02,3.48,9.16.43,18.35.16,27.53.16,10.24,0,20.48,0,30.72,0,.12-.5.23-1,.35-1.49-14.56-13.95-29.12-27.91-43.05-41.25Zm-24.57-44.32c-7.92,17.36-21.05,27.76-40.49,29.11-20.74,1.44-36.95-6.71-46.4-25.16-12.96-25.29-12.83-51.65-1.24-77.34,9.17-20.32,27.1-29.89,48.78-28.16,20.23,1.62,35.32,14.08,41.47,35.61,2.76,9.65,3.66,19.84,5.4,29.78-1.06,12.56-2.31,24.76-7.51,36.16Z"/>
  <path class="cls-1" d="m729.7,204.42c-8.49-13.31-17.36-26.24-32.38-34.15,2.45-.96,4.25-1.65,6.04-2.36,21.43-8.52,35.51-23.41,38.29-46.8,2.45-20.58-2.2-38.99-20.82-51.22-11.39-7.48-24.36-10.8-37.72-11.12-28.3-.68-56.62-.56-84.93-.73-.9,0-1.8.4-2.57.59v202.58h45.65v-76.52c15.23-3.43,25.89,1.93,33.51,14.2,2.67,4.31,5.51,8.51,8.14,12.85,9.22,15.17,18.5,30.31,27.48,45.61,1.96,3.33,4.1,4.45,7.89,4.39,14.06-.23,28.13-.08,42.19-.11,1.62,0,3.23-.19,5.57-.34-12.42-19.43-24.4-38.13-36.34-56.86Zm-58.66-56.92c-9.46,1.69-19.28,1.33-29.51,1.92v-56.4c9.5,0,18.89-.86,28.05.19,16.13,1.84,23.53,10.14,24,24.92.45,14.15-8.65,26.88-22.55,29.36Z"/>
  <path class="cls-1" d="m131.35,29.35c-.02-8.84-4.19-12.91-12.93-12.92-27.91-.03-55.82-.03-83.73,0-8.55.01-12.32,3.91-12.34,12.64-.03,13.86,0,27.71,0,41.57s-.02,28.1,0,42.16c.02,8.73,3.79,12.62,12.35,12.63,27.91.04,55.82.03,83.73,0,8.73-.01,12.89-4.09,12.91-12.94.08-27.71.08-55.43,0-83.14Zm-44.1,49.98c-.01.93-.03,1.85-.07,2.78-.26,5.94-4.86,10.45-10.44,10.47-5.5.02-10.52-4.51-10.73-10.31-.27-7.6-.29-15.22.01-22.81.23-5.75,5.44-10.32,10.85-10.18,5.66.14,10.07,4.59,10.31,10.6.04.92.06,1.85.07,2.78.03,2.78-.04,5.56-.04,8.34,0,2.78.07,5.56.04,8.34Z"/>
  <path class="cls-1" d="m327.11,224.6c-.03-8.11-4.33-12.37-12.28-12.39-28.3-.06-56.6-.06-84.9,0-7.85.02-11.78,4.06-11.8,12-.04,28.3-.04,56.6,0,84.9.01,8.21,3.94,12.06,12.28,12.09,13.86.05,27.71.01,41.57.01s28.5.05,42.74-.02c7.99-.04,12.35-4.23,12.38-12.28.1-28.11.09-56.21,0-84.32Zm-44.1,50.49c0,.88-.03,1.75-.06,2.63-.22,5.99-4.65,10.5-10.28,10.64-5.19.13-10.52-4.13-10.81-9.58-.41-7.97-.41-16-.02-23.97.28-5.74,5.8-10.11,11.22-9.73,5.46.38,9.65,4.69,9.87,10.42.15,3.89.03,7.8.03,11.7,0,2.63.06,5.27.04,7.9Z"/>
  <path class="cls-1" d="m131.34,224.77c-.03-8.45-4.3-12.56-12.69-12.57-27.91-.04-55.82-.03-83.73,0-8.7,0-12.54,3.82-12.56,12.42-.04,14.05-.01,28.1-.01,42.16,0,13.86-.02,27.71,0,41.57.02,9.07,3.72,12.85,12.7,12.86,27.71.03,55.43.03,83.14,0,8.87,0,13.12-3.97,13.14-12.7.09-27.91.09-55.82,0-83.72Zm-44.1,50.29c0,.88-.03,1.75-.06,2.63-.24,6.03-4.63,10.51-10.26,10.66-5.42.15-10.67-4.4-10.9-10.13-.3-7.79-.34-15.61.03-23.39.28-5.7,5.79-10.11,11.2-9.76,5.43.35,9.66,4.68,9.91,10.39.04.97.06,1.95.08,2.92.03,2.92-.04,5.85-.04,8.78,0,2.63.07,5.27.04,7.9Z"/>
</svg>