<?xml version="1.0" standalone="no"?>
<!DOCTYPE svg PUBLIC "-//W3C//DTD SVG 1.1//EN" "http://www.w3.org/Graphics/SVG/1.1/DTD/svg11.dtd">
<svg xmlns="http://www.w3.org/2000/svg" id="Capa_1" viewBox="0 0 987.1 667" width="987.0999755859375" height="667">
  <defs>
    <style>
      .cls-1 {
        fill: #40c5e9;
      }
    </style>
  </defs>
  <path class="cls-1" d="M765.66,127.34v413.57c0,45.69-37.02,82.71-82.71,82.71H103.95c-45.69,0-82.71-37.02-82.71-82.71V127.34c0-45.69,37.02-82.71,82.71-82.71h578.99c45.61,0,82.71,37.02,82.71,82.71ZM703.62,292.77H83.27l.16,248.14c0,11.42,9.26,20.68,20.68,20.68h578.7c11.42,0,20.68-9.26,20.68-20.68l.13-248.14ZM83.44,168.7h620.11v-41.36c0-11.42-9.26-20.68-20.68-20.68H104.11c-11.42,0-20.68,9.26-20.68,20.68v41.36ZM145.31,468.53c0-17.07,13.95-31.02,31.02-31.02h62.03c17.18,0,29.86,13.89,29.86,31.02s-12.74,31.02-29.86,31.02h-62.03c-17.07,0-31.02-13.95-31.02-31.02ZM310.74,468.53c0-17.18,13.84-31.02,31.02-31.02h144.75c17.12,0,31.02,13.89,31.02,31.02s-13.89,31.02-31.02,31.02h-144.75c-17.18,0-31.02-13.84-31.02-31.02Z"/>
  <path class="cls-1" d="M804.91,44.63h-46.2c7.15,4.62,11.3,7.38,20.65,19.89,7.49,10.02,11.87,27.35,11.87,67.1v405.02c0,39.74-4.38,57.08-11.87,67.1-9.35,12.51-13.49,15.26-20.65,19.89h46.2c31.29,0,56.66-25.37,56.66-56.66V101.29c0-31.29-25.37-56.66-56.66-56.66Z"/>
  <path class="cls-1" d="M915.96,44.63h-58.93c7.15,4.62,11.3,7.38,20.65,19.89,7.49,10.02,11.87,27.35,11.87,67.1v405.02c0,39.74-4.38,57.08-11.87,67.1-9.35,12.51-13.49,15.26-20.65,19.89h58.93c24.27,0,43.94-19.67,43.94-43.94V88.57c0-24.27-19.67-43.94-43.94-43.94Z"/>
</svg>