<?xml version="1.0" standalone="no"?>
<!DOCTYPE svg PUBLIC "-//W3C//DTD SVG 1.1//EN" "http://www.w3.org/Graphics/SVG/1.1/DTD/svg11.dtd">
<svg xmlns="http://www.w3.org/2000/svg" version="1.1" viewBox="0 0 333.4 255" width="333.3999938964844" height="255">
  <defs>
    <style>
      .cls-1 {
        fill: #742385;
      }
    </style>
  </defs>
  <!-- Generator: Adobe Illustrator 28.6.0, SVG Export Plug-In . SVG Version: 1.2.0 Build 709)  -->
  <g>
    <g id="Capa_1">
      <g>
        <path class="cls-1" d="M315.1,71.2c-8,6.8-11.1,18.9-26.4,19.1-11.3-4.8-10.1-10.1-5.8-21.4.3-.7,41.8-8.3,40.8-41.8-.2-20.6-15.6-20.4-30.9-13.8-15.3,6.5-27.2,39.7-29.9,62.4s10.8,44.8,35,30.2c24.1-14.6,24.1-23.4,24.1-23.4,0,0,.8-9.8-6.8-11.3h0ZM300.3,28.7c1.2-.4,3.9-1.4,5.9-.1,1.8,1.2,2.1,3.6,2.2,4.1.8,6.5-7.1,12.4-8.9,13.7-2.2,1.6-6.3,4.2-12.5,5.3.6-2.3,5.4-20.1,13.2-23h0Z"/>
        <path class="cls-1" d="M297.4,120.2c-16.9.4-34.8,1.4-53.7,3.3-13,1.3-25.5,2.9-37.3,4.8-.2-3.7-.2-8,.4-12.8.4-3.7,1.1-7,1.8-9.9.8,1.1,5.7,7.4,14.7,8.4,8.9.9,15-4.2,16-5,3-2.8,7.1-7,10.9-12.8,6.3-9.8,8.3-18.5,10.3-28.1,4-18.8,1.8-29.9,1.1-33.1-1.9-8.8-4.4-11.3-6-12.5-5.9-4.6-15.1-3.5-21.2.2-5.4,3.2-7.9,8-8.8,10.2,0-.4.6-5.4-3.1-8.6-3.2-2.8-8.4-2.8-12.2,0-2.8,11.9-5.4,24.5-7.7,37.8-1.7,9.8-3.1,19.2-4.3,28.4-.9,1.1-2.6,2.8-5.2,4.1-2.4,1.2-4.7,1.6-6.1,1.8-.3-3.6-.5-9.1.4-15.7.4-2.9,1.4-7.4,3.5-16.4.7-2.9,2-8.6,3.6-16.1,0,0,.4-2,1.6-10.3.8-5.8,1.1-8.2-.5-10-1.4-1.6-3.6-2-4.3-2.1-3-.5-5.3.9-6.1,1.4-3.6,2.2-4.5,6-4.6,6.8-1.6-1.5-5.7-4.7-11.4-5.2-1.8-.1-5.7-.2-11.2,2.8-13.2,7.1-20,23.1-23.2,30.7-6.6,16-6.8,28.2-6.8,31.2,0,9.5,0,18.2,6.4,24,4.5,4,11.4,6.1,18.1,4.5,10.7-2.5,14.5-12.7,14.7-13.5,5.6,7.6,10,9.3,13.2,9.1,4.9-.4,11.3-5.5,11.3-5.5h0c-.3,2.3-.5,4.6-.8,6.9-.4,4.2-.8,8.2-1.1,12.2-13.9,1.6-28.2,3.6-43,5.9-14.7,2.3-28.9,4.9-42.5,7.6.4-3.1,1.1-7.4,2.1-12.5.4-2,1.7-8.1,3.8-15.6,4.8-17.2,12-33.8,16.7-49.6,2.4-8,5.4-19.8,7.3-34.8-1-.3-2.2-.6-3.5-.8-3.1-.3-5.7.2-7.3.7-1.6.5-4.1,1.5-6.5,3.6-2.3,2-3.5,4.2-4.2,5.5-3.4,6.8-4.3,12.7-6.4,19.6-1.2,4-.7,1.4-5.4,14.2-2.6,7.1-3.8,10.8-6.7,16-1.7,3.1-3.1,5.2-4.4,7-2.2,3-4.4,5.2-6.2,6.8-.2.1-4.7,2.5-7.6.4-1.8-1.3-2-3.5-2.3-6.2-.2-2-.3-5.1.9-8.8,1.4-4.1,2.8-8.2,4.2-12.4,1.9-5.8,3.8-11.6,5.6-17.2.4-1.5.9-4,.4-7-.1-.8-.6-3.5-1.9-5.2-2.5-3.4-8.5-4.2-14.9-2.3.2,7.3-.8,13-1.8,16.9-2.7,11-6.8,15.1-10.4,29.4-1.4,5.6-1.8,9.1-2,10.8-.8,7.8-1.6,15.7,3.2,20.9,1.2,1.3,3.6,3.5,8.4,4.5,2.3.4,7.3,1,13-1.4,8.3-3.4,11.8-10.5,12.7-12.3-.6,4-1.4,8.3-2.6,12.8-2.4,9.2-5.7,16.9-8.9,23.1-14.9,5.1-35.6,15-51.8,34-7.3,8.5-11,15.8-12.8,23.1-1.1,4.4-5.8,22.9,5,33.1,4.2,4,9.4,5.3,12.6,5.8,3.3.3,8.4.3,14.1-1.4,14.7-4.4,22.6-16.9,29.4-27.5,5.6-8.8,8.6-16.3,13.6-29,3.3-8.3,5.7-15.4,7.3-20.5,13.7-3.5,28.1-7,43.3-9.9,19.4-3.7,38.9-7,44.5-7.7,0,1-.2,2.4-.1,4,.1,4.6.2,7.5,2,9,2.5,2.1,7.1.2,7.8,0,1.4-1.2,3.5-3.4,5-6.7,1.9-4,2.1-7.6,2-9.6,14.4-1.2,29.1-2.6,44.1-4.2,17.3-1.9,34.1-4,50.5-6.4.8-.2,4.1-1.3,5.8-4.5,1-1.9,1-3.8,1-4.8,0-1.5,0-3.4-1.3-5-1.3-1.8-3.3-2.3-4-2.5h0ZM227.9,46.6c1.3-1.6,7.5-9,11.7-7.4,3.2,1.2,3.8,6.9,4.1,10.6.7,7.4-1.1,13.2-4.9,24.5,0,0-1.6,4.9-6.9,14.8-1.1,2.1-2.6,4.7-5.5,6.2-.7.4-3.2,1.5-6.2.9-.8-.2-2.3-.5-3.5-1.8-1.9-1.9-1.9-4.4-1.9-5,1.1-7.2,2.3-13.1,3.3-17.4,4-17.4,7.4-22.5,9.8-25.4h0ZM166,86.8c-1.8,4.6-2.5,6.2-3.8,8.1-1.9,2.7-3.3,4.7-5.7,5.1-3,.5-5.5-1.8-6.1-2.4-1.2-1.2-2.8-3.4-3.8-6.3-.9-2.8-.7-5.3-.2-10,.4-3.9.8-7.7,2.4-12.6,1.2-3.7,2.7-6.6,4-8.9,1.3-2.2,3.9-6.3,8.7-9.8,3-2.2,6.3-4.6,10.6-4.1,1,.1,4.8.5,6.2,3,1.5,2.8-1.3,5.4-4.3,13.5-2.4,6.4-1.4,6.8-4.8,16.5-.5,1.4-1.4,3.6-3.1,8.2h0ZM43.7,224.4c-9.3,5.3-17,7.6-10.1-12.3,7.3-21,38-36.2,38-36.2-4.3,23.4-18.7,43.3-27.9,48.5Z"/>
      </g>
    </g>
  </g>
</svg>